HIERARCHY
ROOT Hips
{
	OFFSET 62.890800 8.863803 43.568401
	CHANNELS 6 Xposition Yposition Zposition Zrotation Xrotation Yrotation
	JOINT Chest
	{
		OFFSET -0.160400 1.630001 7.806301
		CHANNELS 6 Xposition Yposition Zposition Zrotation Xrotation Yrotation
		JOINT Chest2
		{
			OFFSET 0.000000 0.000000 3.197998
			CHANNELS 6 Xposition Yposition Zposition Zrotation Xrotation Yrotation
			JOINT Neck
			{
				OFFSET 0.000000 0.000001 7.440701
				CHANNELS 6 Xposition Yposition Zposition Zrotation Xrotation Yrotation
				JOINT Head
				{
					OFFSET 0.000000 0.000000 2.173901
					CHANNELS 6 Xposition Yposition Zposition Zrotation Xrotation Yrotation
					End Site
					{
						OFFSET 0.000000 0.000001 10.420303
					}
				}
			}
			JOINT LeftCollar
			{
				OFFSET 2.426399 -1.880099 4.759399
				CHANNELS 6 Xposition Yposition Zposition Zrotation Xrotation Yrotation
				JOINT LeftShoulder
				{
					OFFSET 4.420197 0.000000 0.000000
					CHANNELS 6 Xposition Yposition Zposition Zrotation Xrotation Yrotation
					JOINT LeftElbow
					{
						OFFSET 0.000000 -0.000001 -10.347099
						CHANNELS 6 Xposition Yposition Zposition Zrotation Xrotation Yrotation
						JOINT LeftWrist
						{
							OFFSET 0.000000 -0.000001 -12.496300
							CHANNELS 6 Xposition Yposition Zposition Zrotation Xrotation Yrotation
							End Site
							{
								OFFSET 0.000000 0.000000 -2.173901
							}
						}
					}
				}
			}
			JOINT RightCollar
			{
				OFFSET -2.781502 -1.903799 5.072601
				CHANNELS 6 Xposition Yposition Zposition Zrotation Xrotation Yrotation
				JOINT RightShoulder
				{
					OFFSET -4.012100 0.000000 0.000000
					CHANNELS 6 Xposition Yposition Zposition Zrotation Xrotation Yrotation
					JOINT RightElbow
					{
						OFFSET 0.000000 -0.000001 -10.346600
						CHANNELS 6 Xposition Yposition Zposition Zrotation Xrotation Yrotation
						JOINT RightWrist
						{
							OFFSET 0.000000 -0.000001 -12.562599
							CHANNELS 6 Xposition Yposition Zposition Zrotation Xrotation Yrotation
							End Site
							{
								OFFSET 0.000000 0.000000 -2.173901
							}
						}
					}
				}
			}
		}
	}
	JOINT LeftHip
	{
		OFFSET 2.047997 -0.047200 -2.693199
		CHANNELS 6 Xposition Yposition Zposition Zrotation Xrotation Yrotation
		JOINT LeftKnee
		{
			OFFSET 0.000000 -0.000001 -18.824400
			CHANNELS 6 Xposition Yposition Zposition Zrotation Xrotation Yrotation
			JOINT LeftAnkle
			{
				OFFSET 0.000000 -0.000002 -19.078199
				CHANNELS 6 Xposition Yposition Zposition Zrotation Xrotation Yrotation
				End Site
				{
					OFFSET 0.000000 -9.342100 0.000001
				}
			}
		}
	}
	JOINT RightHip
	{
		OFFSET -2.129898 -0.022300 -2.538300
		CHANNELS 6 Xposition Yposition Zposition Zrotation Xrotation Yrotation
		JOINT RightKnee
		{
			OFFSET 0.000000 -0.000001 -18.644600
			CHANNELS 6 Xposition Yposition Zposition Zrotation Xrotation Yrotation
			JOINT RightAnkle
			{
				OFFSET 0.000000 -0.000002 -18.801399
				CHANNELS 6 Xposition Yposition Zposition Zrotation Xrotation Yrotation
				End Site
				{
					OFFSET 0.000000 -8.914600 0.000001
				}
			}
		}
	}
}
MOTION
Frames: 10
Frame Time: 0.041667
83.165306 42.516109 38.824471 3085.279503 4.910299 368.587935 -0.160398 1.629994 7.806308 -23.919266 15.396546 -2.764950 0.000001 0.000004 3.198002 11.855269 -6.609064 1.273850 0.000004 0.000005 7.440699 7.077789 22.744462 -3.984956 -0.000011 -0.000005 2.173914 3.696150 1.519497 4.550886 2.426415 -1.880095 4.759390 -184.717180 169.611205 -186.005777 4.420180 -0.000001 -0.000006 -6.346175 10.284049 -101.219749 -0.000008 -0.000003 -10.347101 783.897095 -128.162844 -306.148913 0.000004 0.000007 -12.496282 -18.726521 -1.545940 1.338472 -2.781495 -1.903795 5.072599 -181.583994 -188.843980 166.581156 -4.012102 0.000003 -0.000014 -14.571196 -13.287611 452.732478 -0.000004 0.000000 -10.346603 -235.269855 -170.374465 -186.741866 0.000003 -0.000007 -12.562592 969.705452 544.190350 -850.399478 2.047996 -0.047201 -2.693192 784.323518 -41.885350 37.390727 0.000002 0.000006 -18.824398 -396.385657 53.991173 15.188481 0.000004 0.000003 -19.078197 -364.057498 16.166356 0.345655 -2.129908 -0.022299 -2.538293 -788.092963 -36.665207 -31.618459 0.000000 0.000002 -18.644604 309.317192 -231.591798 90.394658 0.000004 -0.000004 -18.801399 160.829481 167.320428 155.278518
82.548203 43.849705 38.801762 3086.702150 3.799461 368.391089 -0.160393 1.629993 7.806309 -25.446840 15.485641 -2.098413 0.000011 0.000003 3.198002 13.368296 -6.586155 1.456880 0.000005 0.000008 7.440703 7.327880 23.517993 -3.894965 -0.000011 -0.000001 2.173905 3.516400 1.673373 4.409353 2.426408 -1.880098 4.759401 -185.933240 167.958190 -185.889472 4.420198 -0.000003 -0.000010 -5.331434 8.808255 -101.148265 -0.000007 -0.000000 -10.347101 783.886932 -127.772199 -305.432017 -0.000014 -0.000006 -12.496302 -19.049092 -1.668909 1.223268 -2.781495 -1.903795 5.072606 -181.427146 -189.215815 167.717016 -4.012100 0.000004 -0.000008 -14.256358 -13.211084 452.090030 -0.000004 -0.000001 -10.346603 -234.226038 -170.263966 -186.780170 0.000007 0.000005 -12.562589 969.831019 544.135380 -850.811311 2.048012 -0.047205 -2.693194 781.596852 -41.400505 34.976989 0.000014 -0.000001 -18.824404 -395.060928 53.079323 15.269583 0.000006 0.000002 -19.078197 -364.314804 16.401789 0.460913 -2.129889 -0.022300 -2.538295 -788.727624 -36.782532 -31.804113 -0.000005 0.000001 -18.644594 311.716501 -230.911976 88.154472 0.000006 -0.000001 -18.801395 160.607582 166.394364 153.571449
81.928207 45.155308 38.757263 3088.139003 2.694306 368.215444 -0.160412 1.630001 7.806304 -26.983702 15.557540 -1.463490 0.000005 0.000005 3.198006 14.879302 -6.530551 1.634192 -0.000002 0.000003 7.440692 7.573993 24.232722 -3.768955 -0.000006 -0.000001 2.173905 3.457472 1.813672 4.310886 2.426411 -1.880098 4.759397 -185.211439 168.288990 -185.679362 4.420197 0.000003 0.000007 -6.383178 9.171797 -101.346723 0.000001 -0.000002 -10.347099 783.995887 -127.409188 -304.767986 -0.000006 0.000003 -12.496297 -19.350356 -1.809689 1.172078 -2.781498 -1.903796 5.072596 -181.132778 -189.450091 168.354041 -4.012094 0.000001 0.000001 -14.093838 -13.250183 452.013504 0.000004 -0.000005 -10.346589 -233.313743 -170.143919 -186.973191 0.000001 0.000005 -12.562607 969.999752 544.206196 -851.382479 2.047980 -0.047196 -2.693198 778.554740 -40.883515 32.513196 0.000000 -0.000001 -18.824406 -396.266839 52.776021 16.962942 0.000011 0.000004 -19.078199 -363.487013 16.066637 0.996837 -2.129905 -0.022300 -2.538293 -789.633471 -36.871629 -32.418543 0.000002 0.000002 -18.644600 313.555735 -230.365588 86.764672 0.000002 -0.000002 -18.801405 160.757108 165.554210 152.255394
81.313797 46.429001 38.695866 3089.602521 1.590241 367.782983 -0.160399 1.630001 7.806303 -28.609820 15.497897 -0.596383 0.000001 0.000005 3.198003 16.470668 -6.432483 1.833671 -0.000008 0.000006 7.440701 7.733255 24.872458 -3.617807 -0.000010 0.000002 2.173905 3.412351 1.876042 4.243652 2.426404 -1.880095 4.759404 -185.191604 168.336993 -185.950534 4.420197 -0.000002 -0.000002 -6.920005 9.178628 -100.938591 -0.000000 -0.000002 -10.347095 784.055665 -127.058348 -304.067044 0.000004 -0.000000 -12.496300 -19.672459 -1.894970 1.065515 -2.781496 -1.903795 5.072609 -180.707899 -189.685814 169.075773 -4.012096 0.000001 0.000001 -14.189347 -13.368483 451.714779 -0.000005 0.000000 -10.346610 -232.731920 -170.022533 -187.206579 -0.000009 0.000009 -12.562593 970.520376 544.359301 -851.961734 2.047997 -0.047196 -2.693197 775.433344 -40.080612 30.274253 0.000018 -0.000005 -18.824402 -399.927083 52.925565 20.255500 0.000010 -0.000004 -19.078197 -361.646359 15.002676 1.996345 -2.129903 -0.022294 -2.538302 -790.527843 -37.160184 -33.155572 0.000002 -0.000006 -18.644602 314.579443 -230.121313 86.394967 -0.000006 0.000006 -18.801403 161.357960 164.883977 151.425089
80.714706 47.669113 38.625458 3091.081558 0.533855 367.548271 -0.160386 1.629995 7.806303 -30.205415 15.474828 0.087958 0.000006 -0.000004 3.197998 18.028400 -6.348677 2.011491 -0.000008 0.000007 7.440700 7.933876 25.493725 -3.463502 -0.000000 -0.000002 2.173914 3.380221 1.974505 4.159716 2.426395 -1.880091 4.759400 -185.304316 168.282324 -185.933445 4.420197 -0.000002 -0.000005 -7.280314 9.100361 -100.745461 0.000000 0.000003 -10.347097 784.088341 -126.720882 -303.372278 -0.000001 0.000001 -12.496294 -20.027786 -1.974251 0.958115 -2.781504 -1.903790 5.072598 -180.235606 -190.026518 169.223292 -4.012100 -0.000001 0.000007 -14.185479 -13.782150 451.976512 -0.000005 -0.000001 -10.346599 -232.376040 -169.882405 -187.509156 -0.000000 0.000009 -12.562604 971.274101 544.518964 -852.636010 2.048012 -0.047203 -2.693194 772.323968 -39.369494 28.125568 0.000006 0.000001 -18.824402 -405.634771 53.333501 24.973639 0.000002 -0.000003 -19.078201 -359.090201 13.099175 3.582503 -2.129882 -0.022308 -2.538301 -791.335991 -37.216885 -34.098743 0.000006 -0.000006 -18.644596 314.550429 -230.397171 87.192371 -0.000000 -0.000006 -18.801403 162.583200 164.426299 151.129000
80.139198 48.874901 38.556465 3092.642994 -0.449286 367.279680 -0.160396 1.629997 7.806295 -31.895607 15.385515 0.832957 -0.000017 0.000004 3.198001 19.369544 -6.267994 2.139598 0.000009 0.000001 7.440701 8.347622 26.055403 -3.302214 -0.000018 0.000008 2.173908 3.368633 2.082641 4.091269 2.426409 -1.880095 4.759395 -185.015345 168.225606 -186.034682 4.420189 0.000001 -0.000011 -7.843829 8.938551 -100.436545 0.000007 -0.000002 -10.347107 784.092056 -126.381285 -302.726879 0.000006 -0.000004 -12.496298 -20.470171 -2.044497 0.839274 -2.781498 -1.903799 5.072596 -180.090109 -190.455385 171.019973 -4.012101 0.000004 0.000005 -14.028933 -13.879928 450.620610 -0.000006 -0.000001 -10.346600 -232.180861 -169.713549 -187.860228 0.000004 0.000004 -12.562596 972.219071 544.763649 -853.497433 2.047999 -0.047202 -2.693204 769.507417 -38.553122 26.341473 0.000008 -0.000011 -18.824402 -412.653583 53.765917 30.721672 0.000004 -0.000005 -19.078201 -356.206823 10.530123 5.539702 -2.129896 -0.022303 -2.538301 -791.843392 -37.278981 -34.978744 0.000008 -0.000004 -18.644604 313.198543 -231.243704 89.321703 -0.000001 0.000003 -18.801405 164.458552 164.204701 151.339152
79.593201 50.042805 38.501858 3094.353929 -1.309810 367.046825 -0.160405 1.629997 7.806304 -33.730449 15.244311 1.573969 0.000005 -0.000001 3.198000 21.065651 -6.143113 2.332257 0.000003 0.000000 7.440691 8.459091 26.511490 -3.244021 -0.000008 -0.000005 2.173906 3.343938 2.199124 4.035208 2.426410 -1.880105 4.759382 -185.035179 168.416933 -186.299407 4.420184 0.000002 -0.000003 -8.488307 8.979309 -99.923154 -0.000001 -0.000001 -10.347113 784.219808 -126.054761 -302.035582 -0.000000 -0.000001 -12.496289 -21.006776 -2.089084 0.705795 -2.781497 -1.903804 5.072593 -179.931389 -190.562360 171.723100 -4.012094 0.000000 0.000003 -13.929161 -16.160409 450.569876 -0.000006 -0.000003 -10.346610 -230.144262 -169.842353 -188.427967 0.000003 0.000004 -12.562607 973.318131 544.999153 -854.195042 2.047998 -0.047197 -2.693194 767.047511 -37.690002 24.945272 0.000007 0.000003 -18.824404 -419.628545 54.223123 36.413084 -0.000010 -0.000005 -19.078199 -353.682823 7.692961 7.594143 -2.129902 -0.022305 -2.538298 -792.030375 -37.317323 -35.739784 0.000007 0.000000 -18.644600 310.120750 -232.744597 93.020831 0.000017 0.000000 -18.801401 167.279187 161.672695 158.263693
79.078705 51.171711 38.473656 3096.274469 -2.016417 366.855826 -0.160404 1.629994 7.806304 -35.768423 15.038835 2.313097 0.000007 0.000000 3.198002 22.857778 -5.964963 2.531006 -0.000002 0.000005 7.440696 8.475611 26.849708 -3.246063 -0.000016 -0.000000 2.173907 3.335055 2.322314 3.997483 2.426408 -1.880095 4.759392 -184.961195 168.510589 -186.729681 4.420206 0.000003 -0.000000 -9.307011 8.727084 -99.278603 -0.000007 -0.000001 -10.347102 784.333463 -125.721106 -301.316582 0.000005 -0.000001 -12.496297 -21.665159 -2.112378 0.545269 -2.781509 -1.903792 5.072591 -179.640887 -190.701873 171.563109 -4.012093 0.000008 -0.000001 -14.039032 -15.699912 450.743581 -0.000006 -0.000003 -10.346605 -231.253321 -169.547480 -188.922677 -0.000006 0.000002 -12.562593 974.487350 545.158597 -854.686160 2.047989 -0.047200 -2.693201 764.919497 -36.796848 23.890330 0.000001 -0.000004 -18.824404 -427.306552 54.102465 42.597561 0.000002 0.000000 -19.078203 -350.841054 4.846760 9.597383 -2.129908 -0.022298 -2.538299 -792.018190 -37.327988 -36.371270 0.000013 -0.000003 -18.644596 305.099305 -234.763164 98.498158 -0.000001 0.000006 -18.801403 170.667699 159.865687 163.492025
78.595207 52.263306 38.481857 3098.410952 -2.580907 366.775640 -0.160383 1.629989 7.806312 -38.000020 14.838726 3.003291 -0.000001 0.000009 3.198003 24.749175 -5.756273 2.732834 -0.000008 -0.000002 7.440697 8.483798 27.075365 -3.321585 0.000004 -0.000006 2.173913 3.293664 2.415602 3.960535 2.426410 -1.880102 4.759394 -184.854712 168.673776 -187.193246 4.420199 -0.000003 -0.000002 -10.247912 8.475202 -98.556891 0.000000 -0.000002 -10.347094 784.534980 -125.381933 -300.523515 0.000002 0.000006 -12.496297 -22.481083 -2.118004 0.353755 -2.781504 -1.903801 5.072606 -179.714517 -190.618026 172.049323 -4.012090 -0.000001 0.000008 -14.064808 -14.962180 450.213039 0.000007 -0.000003 -10.346605 -232.226104 -169.199878 -189.399657 0.000010 0.000008 -12.562576 975.534172 545.301540 -854.981224 2.048006 -0.047206 -2.693199 762.966828 -35.901322 22.942209 -0.000005 0.000006 -18.824398 -433.649530 53.937905 47.741585 -0.000005 -0.000002 -19.078197 -348.823526 2.311580 11.159717 -2.129890 -0.022305 -2.538289 -791.818476 -37.253337 -36.824340 -0.000001 -0.000012 -18.644596 297.549377 -237.161981 106.203206 0.000009 0.000005 -18.801401 174.966893 157.617216 169.167079
78.139107 53.320408 38.530357 3100.751576 -3.003893 366.778262 -0.160402 1.630000 7.806306 -40.988324 14.599118 3.725801 0.000004 0.000008 3.197995 27.307851 -5.497359 3.006674 -0.000005 -0.000002 7.440701 8.429191 27.214119 -3.428889 0.000005 -0.000006 2.173915 3.248149 2.481817 3.935204 2.426400 -1.880102 4.759395 -184.916594 168.746285 -187.627578 4.420189 0.000004 0.000001 -11.159768 8.139409 -97.834236 -0.000006 0.000007 -10.347101 784.905723 -124.967054 -299.554940 0.000001 -0.000004 -12.496300 -23.447186 -2.109907 0.125121 -2.781493 -1.903809 5.072602 -179.959816 -190.497309 172.716291 -4.012101 -0.000004 -0.000004 -13.895426 -16.202506 449.480105 0.000000 0.000001 -10.346595 -231.135186 -168.966135 -189.757791 0.000005 0.000007 -12.562587 976.558700 545.489725 -855.136406 2.047992 -0.047198 -2.693199 761.099891 -34.968554 21.993399 0.000008 -0.000001 -18.824400 -438.899049 53.586331 51.931212 -0.000005 -0.000012 -19.078201 -347.372247 0.162217 12.469250 -2.129903 -0.022302 -2.538301 -791.449154 -37.128044 -37.062249 0.000003 -0.000001 -18.644592 287.068917 -239.357750 116.449767 0.000012 0.000001 -18.801401 179.699518 155.171858 174.746647
